<svg width="20" height="20" viewBox="0 0 20 20" fill="none" xmlns="http://www.w3.org/2000/svg">
<path fill-rule="evenodd" clip-rule="evenodd" d="M9.55806 2.05806C9.80214 1.81398 10.1979 1.81398 10.4419 2.05806L14.6086 6.22472C14.8527 6.4688 14.8527 6.86453 14.6086 7.10861C14.3645 7.35269 13.9688 7.35269 13.7247 7.10861L10.625 4.00888V12.5C10.625 12.8452 10.3452 13.125 10 13.125C9.65482 13.125 9.375 12.8452 9.375 12.5V4.00888L6.27528 7.10861C6.0312 7.35269 5.63547 7.35269 5.39139 7.10861C5.14731 6.86453 5.14731 6.4688 5.39139 6.22472L9.55806 2.05806ZM2.5 11.875C2.84518 11.875 3.125 12.1548 3.125 12.5V15.8333C3.125 16.1096 3.23475 16.3746 3.4301 16.5699C3.62545 16.7653 3.8904 16.875 4.16667 16.875H15.8333C16.1096 16.875 16.3746 16.7653 16.5699 16.5699C16.7653 16.3746 16.875 16.1096 16.875 15.8333V12.5C16.875 12.1548 17.1548 11.875 17.5 11.875C17.8452 11.875 18.125 12.1548 18.125 12.5V15.8333C18.125 16.4411 17.8836 17.024 17.4538 17.4538C17.024 17.8836 16.4411 18.125 15.8333 18.125H4.16667C3.55888 18.125 2.97598 17.8836 2.54621 17.4538C2.11644 17.024 1.875 16.4411 1.875 15.8333V12.5C1.875 12.1548 2.15482 11.875 2.5 11.875Z" fill="#F9F9F9"/>
</svg>
