<svg width="272" height="48" viewBox="0 0 272 48" fill="none" xmlns="http://www.w3.org/2000/svg">
<rect x="0.5" y="0.5" width="271" height="47" rx="7.5" fill="#1C1F21"/>
<rect x="0.5" y="0.5" width="271" height="47" rx="7.5" stroke="#363B40"/>
<rect x="5" y="4" width="129" height="40" rx="5" fill="#2D3136"/>
<g clip-path="url(#clip0_2126_1193)">
<path fill-rule="evenodd" clip-rule="evenodd" d="M27.3333 17.8335C27.1122 17.8335 26.9003 17.9213 26.744 18.0776C26.5877 18.2339 26.4999 18.4458 26.4999 18.6668V30.1668H33.4999V18.6668C33.4999 18.4458 33.4121 18.2339 33.2558 18.0776C33.0996 17.9213 32.8876 17.8335 32.6666 17.8335H27.3333ZM34.4999 21.5002V18.6668C34.4999 18.1806 34.3068 17.7143 33.9629 17.3705C33.6191 17.0267 33.1528 16.8335 32.6666 16.8335H27.3333C26.847 16.8335 26.3807 17.0267 26.0369 17.3705C25.6931 17.7143 25.4999 18.1806 25.4999 18.6668V23.5002H24.6666C24.1804 23.5002 23.714 23.6933 23.3702 24.0371C23.0264 24.3809 22.8333 24.8473 22.8333 25.3335V29.3335C22.8333 29.8197 23.0264 30.286 23.3702 30.6299C23.714 30.9737 24.1804 31.1668 24.6666 31.1668H35.3333C35.8195 31.1668 36.2858 30.9737 36.6296 30.6299C36.9734 30.286 37.1666 29.8197 37.1666 29.3335V23.3335C37.1666 22.8473 36.9734 22.3809 36.6296 22.0371C36.2858 21.6933 35.8195 21.5002 35.3333 21.5002H34.4999ZM34.4999 22.5002V30.1668H35.3333C35.5543 30.1668 35.7662 30.079 35.9225 29.9228C36.0788 29.7665 36.1666 29.5545 36.1666 29.3335V23.3335C36.1666 23.1125 36.0788 22.9005 35.9225 22.7442C35.7662 22.588 35.5543 22.5002 35.3333 22.5002H34.4999ZM25.4999 24.5002H24.6666C24.4456 24.5002 24.2336 24.588 24.0773 24.7442C23.921 24.9005 23.8333 25.1125 23.8333 25.3335V29.3335C23.8333 29.5545 23.921 29.7665 24.0773 29.9228C24.2336 30.079 24.4456 30.1668 24.6666 30.1668H25.4999V24.5002ZM28.1666 20.0002C28.1666 19.724 28.3904 19.5002 28.6666 19.5002H31.3333C31.6094 19.5002 31.8333 19.724 31.8333 20.0002C31.8333 20.2763 31.6094 20.5002 31.3333 20.5002H28.6666C28.3904 20.5002 28.1666 20.2763 28.1666 20.0002ZM28.1666 22.6668C28.1666 22.3907 28.3904 22.1668 28.6666 22.1668H31.3333C31.6094 22.1668 31.8333 22.3907 31.8333 22.6668C31.8333 22.943 31.6094 23.1668 31.3333 23.1668H28.6666C28.3904 23.1668 28.1666 22.943 28.1666 22.6668ZM28.1666 25.3335C28.1666 25.0574 28.3904 24.8335 28.6666 24.8335H31.3333C31.6094 24.8335 31.8333 25.0574 31.8333 25.3335C31.8333 25.6096 31.6094 25.8335 31.3333 25.8335H28.6666C28.3904 25.8335 28.1666 25.6096 28.1666 25.3335ZM28.1666 28.0002C28.1666 27.724 28.3904 27.5002 28.6666 27.5002H31.3333C31.6094 27.5002 31.8333 27.724 31.8333 28.0002C31.8333 28.2763 31.6094 28.5002 31.3333 28.5002H28.6666C28.3904 28.5002 28.1666 28.2763 28.1666 28.0002Z" fill="#59B2FF"/>
</g>
<path d="M50.2178 19.5059C51.5075 19.5059 52.4486 19.7702 53.041 20.2988C53.6335 20.8275 53.9297 21.568 53.9297 22.5205C53.9297 22.9535 53.8613 23.3659 53.7246 23.7578C53.5924 24.1452 53.3737 24.4893 53.0684 24.79C52.763 25.0863 52.3597 25.321 51.8584 25.4941C51.3617 25.6673 50.7487 25.7539 50.0195 25.7539H48.9531V29.5H47.3125V19.5059H50.2178ZM50.1084 20.8662H48.9531V24.3867H49.8486C50.3636 24.3867 50.8011 24.3275 51.1611 24.209C51.5212 24.0859 51.7946 23.8923 51.9814 23.6279C52.1683 23.3636 52.2617 23.015 52.2617 22.582C52.2617 22.0033 52.0863 21.5726 51.7354 21.29C51.389 21.0075 50.8467 20.8662 50.1084 20.8662ZM59.5967 21.7891C59.7243 21.7891 59.8633 21.7959 60.0137 21.8096C60.1641 21.8232 60.2939 21.8415 60.4033 21.8643L60.2529 23.3682C60.1572 23.3408 60.0387 23.3203 59.8975 23.3066C59.7607 23.293 59.6377 23.2861 59.5283 23.2861C59.2412 23.2861 58.9678 23.334 58.708 23.4297C58.4482 23.5208 58.2181 23.6621 58.0176 23.8535C57.8171 24.0404 57.6598 24.2751 57.5459 24.5576C57.432 24.8402 57.375 25.1683 57.375 25.542V29.5H55.7617V21.9326H57.0195L57.2383 23.2656H57.3135C57.4639 22.9967 57.6507 22.7507 57.874 22.5273C58.0973 22.304 58.3525 22.1263 58.6396 21.9941C58.9313 21.8574 59.2503 21.7891 59.5967 21.7891ZM64.8193 21.7891C65.4938 21.7891 66.0726 21.9281 66.5557 22.2061C67.0387 22.484 67.4102 22.8783 67.6699 23.3887C67.9297 23.8991 68.0596 24.5098 68.0596 25.2207V26.082H63.0078C63.026 26.8158 63.222 27.3809 63.5957 27.7773C63.974 28.1738 64.5026 28.3721 65.1816 28.3721C65.6647 28.3721 66.0977 28.3265 66.4805 28.2354C66.8678 28.1396 67.2666 28.0007 67.6768 27.8184V29.124C67.2985 29.3018 66.9134 29.4316 66.5215 29.5137C66.1296 29.5957 65.6602 29.6367 65.1133 29.6367C64.3704 29.6367 63.7165 29.4932 63.1514 29.2061C62.5908 28.9144 62.151 28.4814 61.832 27.9072C61.5176 27.333 61.3604 26.6198 61.3604 25.7676C61.3604 24.9199 61.5039 24.1999 61.791 23.6074C62.0781 23.015 62.4814 22.5638 63.001 22.2539C63.5205 21.944 64.1266 21.7891 64.8193 21.7891ZM64.8193 22.999C64.3135 22.999 63.9033 23.1631 63.5889 23.4912C63.279 23.8193 63.0967 24.3001 63.042 24.9336H66.4873C66.4827 24.5553 66.4189 24.2204 66.2959 23.9287C66.1774 23.637 65.9951 23.4092 65.749 23.2451C65.5075 23.0811 65.1976 22.999 64.8193 22.999ZM74.957 27.3398C74.957 27.8366 74.8363 28.2559 74.5947 28.5977C74.3532 28.9395 74 29.1992 73.5352 29.377C73.0749 29.5501 72.5098 29.6367 71.8398 29.6367C71.3112 29.6367 70.8555 29.598 70.4727 29.5205C70.0944 29.4476 69.7367 29.3337 69.3994 29.1787V27.791C69.7594 27.9596 70.1628 28.1055 70.6094 28.2285C71.0605 28.3516 71.4867 28.4131 71.8877 28.4131C72.4163 28.4131 72.7969 28.3311 73.0293 28.167C73.2617 27.9984 73.3779 27.7751 73.3779 27.4971C73.3779 27.333 73.3301 27.1872 73.2344 27.0596C73.1432 26.9274 72.9701 26.793 72.7148 26.6562C72.4642 26.515 72.0951 26.3464 71.6074 26.1504C71.1289 25.959 70.7256 25.7676 70.3975 25.5762C70.0693 25.3848 69.821 25.1546 69.6523 24.8857C69.4837 24.6123 69.3994 24.2637 69.3994 23.8398C69.3994 23.1699 69.6637 22.6618 70.1924 22.3154C70.7256 21.9645 71.4297 21.7891 72.3047 21.7891C72.7695 21.7891 73.207 21.8369 73.6172 21.9326C74.0319 22.0238 74.4375 22.1582 74.834 22.3359L74.3281 23.5459C73.9863 23.3955 73.6423 23.2725 73.2959 23.1768C72.9541 23.0765 72.6055 23.0264 72.25 23.0264C71.8353 23.0264 71.5186 23.0902 71.2998 23.2178C71.0856 23.3454 70.9785 23.5277 70.9785 23.7646C70.9785 23.9424 71.0309 24.0928 71.1357 24.2158C71.2406 24.3389 71.4206 24.4619 71.6758 24.585C71.9355 24.708 72.2956 24.8607 72.7559 25.043C73.207 25.2161 73.5967 25.3984 73.9248 25.5898C74.2575 25.7767 74.5127 26.0068 74.6904 26.2803C74.8682 26.5537 74.957 26.9069 74.957 27.3398ZM79.708 21.7891C80.3825 21.7891 80.9613 21.9281 81.4443 22.2061C81.9274 22.484 82.2988 22.8783 82.5586 23.3887C82.8184 23.8991 82.9482 24.5098 82.9482 25.2207V26.082H77.8965C77.9147 26.8158 78.1107 27.3809 78.4844 27.7773C78.8626 28.1738 79.3913 28.3721 80.0703 28.3721C80.5534 28.3721 80.9863 28.3265 81.3691 28.2354C81.7565 28.1396 82.1553 28.0007 82.5654 27.8184V29.124C82.1872 29.3018 81.8021 29.4316 81.4102 29.5137C81.0182 29.5957 80.5488 29.6367 80.002 29.6367C79.2591 29.6367 78.6051 29.4932 78.04 29.2061C77.4795 28.9144 77.0397 28.4814 76.7207 27.9072C76.4062 27.333 76.249 26.6198 76.249 25.7676C76.249 24.9199 76.3926 24.1999 76.6797 23.6074C76.9668 23.015 77.3701 22.5638 77.8896 22.2539C78.4092 21.944 79.0153 21.7891 79.708 21.7891ZM79.708 22.999C79.2021 22.999 78.792 23.1631 78.4775 23.4912C78.1676 23.8193 77.9854 24.3001 77.9307 24.9336H81.376C81.3714 24.5553 81.3076 24.2204 81.1846 23.9287C81.0661 23.637 80.8838 23.4092 80.6377 23.2451C80.3962 23.0811 80.0863 22.999 79.708 22.999ZM88.7041 21.7891C89.5563 21.7891 90.2194 22.0101 90.6934 22.4521C91.1719 22.8896 91.4111 23.5938 91.4111 24.5645V29.5H89.8047V24.8652C89.8047 24.2773 89.6839 23.8376 89.4424 23.5459C89.2008 23.2497 88.8271 23.1016 88.3213 23.1016C87.5876 23.1016 87.0771 23.3271 86.79 23.7783C86.5075 24.2295 86.3662 24.8835 86.3662 25.7402V29.5H84.7598V21.9326H86.0107L86.2363 22.958H86.3252C86.4893 22.6937 86.6921 22.4772 86.9336 22.3086C87.1797 22.1354 87.4531 22.0055 87.7539 21.9189C88.0592 21.8324 88.376 21.7891 88.7041 21.7891ZM96.709 29.6367C95.9935 29.6367 95.3737 29.4977 94.8496 29.2197C94.3255 28.9417 93.9222 28.5156 93.6396 27.9414C93.3571 27.3672 93.2158 26.638 93.2158 25.7539C93.2158 24.8333 93.3708 24.0814 93.6807 23.498C93.9906 22.9147 94.4189 22.484 94.9658 22.2061C95.5173 21.9281 96.1484 21.7891 96.8594 21.7891C97.3105 21.7891 97.7184 21.8346 98.083 21.9258C98.4521 22.0124 98.7643 22.1195 99.0195 22.2471L98.541 23.5322C98.263 23.4183 97.9782 23.3226 97.6865 23.2451C97.3949 23.1676 97.1146 23.1289 96.8457 23.1289C96.4036 23.1289 96.0345 23.2269 95.7383 23.4229C95.4466 23.6188 95.2279 23.9105 95.082 24.2979C94.9408 24.6852 94.8701 25.166 94.8701 25.7402C94.8701 26.2962 94.943 26.7656 95.0889 27.1484C95.2347 27.5267 95.4512 27.8138 95.7383 28.0098C96.0254 28.2012 96.3786 28.2969 96.7979 28.2969C97.2126 28.2969 97.584 28.2467 97.9121 28.1465C98.2402 28.0462 98.5501 27.9163 98.8418 27.7568V29.1514C98.5547 29.3154 98.2471 29.4362 97.9189 29.5137C97.5908 29.5957 97.1875 29.6367 96.709 29.6367ZM102.226 21.9326V29.5H100.619V21.9326H102.226ZM101.433 19.0342C101.679 19.0342 101.891 19.1003 102.068 19.2324C102.251 19.3646 102.342 19.5924 102.342 19.916C102.342 20.235 102.251 20.4629 102.068 20.5996C101.891 20.7318 101.679 20.7979 101.433 20.7979C101.177 20.7979 100.961 20.7318 100.783 20.5996C100.61 20.4629 100.523 20.235 100.523 19.916C100.523 19.5924 100.61 19.3646 100.783 19.2324C100.961 19.1003 101.177 19.0342 101.433 19.0342ZM107.496 21.7891C108.453 21.7891 109.175 22.001 109.663 22.4248C110.155 22.8486 110.401 23.5094 110.401 24.4072V29.5H109.26L108.952 28.4268H108.897C108.683 28.7002 108.462 28.9258 108.234 29.1035C108.007 29.2812 107.742 29.4134 107.441 29.5C107.145 29.5911 106.783 29.6367 106.354 29.6367C105.903 29.6367 105.5 29.5547 105.145 29.3906C104.789 29.222 104.509 28.9668 104.304 28.625C104.099 28.2832 103.996 27.8503 103.996 27.3262C103.996 26.5469 104.285 25.9613 104.864 25.5693C105.448 25.1774 106.327 24.9609 107.503 24.9199L108.815 24.8721V24.4756C108.815 23.9515 108.692 23.5778 108.446 23.3545C108.205 23.1312 107.863 23.0195 107.421 23.0195C107.043 23.0195 106.676 23.0742 106.32 23.1836C105.965 23.293 105.618 23.4274 105.281 23.5869L104.762 22.4521C105.131 22.2562 105.55 22.0967 106.02 21.9736C106.493 21.8506 106.986 21.7891 107.496 21.7891ZM108.809 25.8838L107.831 25.918C107.029 25.9453 106.466 26.082 106.143 26.3281C105.819 26.5742 105.657 26.9115 105.657 27.3398C105.657 27.7135 105.769 27.987 105.992 28.1602C106.215 28.3288 106.509 28.4131 106.874 28.4131C107.43 28.4131 107.89 28.2559 108.255 27.9414C108.624 27.6224 108.809 27.1553 108.809 26.54V25.8838ZM114.264 29.5H112.65V18.8633H114.264V29.5Z" fill="#F9F9F9"/>
<path fill-rule="evenodd" clip-rule="evenodd" d="M171.667 20.5C171.206 20.5 170.833 20.8731 170.833 21.3333V26.6667C170.833 27.1269 171.206 27.5 171.667 27.5H178.333C178.793 27.5 179.167 27.1269 179.167 26.6667V24.6735C179.167 24.6686 179.167 24.6638 179.167 24.6589V23.0095C179.166 23.0035 179.166 22.9975 179.167 22.9914V21.3333C179.167 20.8731 178.793 20.5 178.333 20.5H171.667ZM180.167 22.1294V21.3333C180.167 20.3208 179.346 19.5 178.333 19.5H171.667C170.654 19.5 169.833 20.3208 169.833 21.3333V26.6667C169.833 27.6792 170.654 28.5 171.667 28.5H178.333C179.346 28.5 180.167 27.6792 180.167 26.6667V25.6009L182.872 27.4043C182.997 27.4878 183.143 27.5357 183.293 27.5429C183.444 27.5501 183.594 27.5163 183.727 27.4452C183.859 27.374 183.971 27.2682 184.048 27.1389C184.126 27.0096 184.167 26.8617 184.167 26.7109V21.2468C184.167 21.2468 184.167 21.2469 184.167 21.2468C184.167 21.1002 184.128 20.9561 184.055 20.8292C183.981 20.7023 183.875 20.597 183.748 20.524C183.621 20.4509 183.477 20.4127 183.33 20.4132C183.184 20.4137 183.04 20.4529 182.913 20.5268L180.167 22.1294ZM180.167 23.2872V24.3991L183.167 26.3991V21.5368L180.167 23.2872Z" fill="#869198"/>
<path d="M203.035 24.4893C203.035 25.2594 202.937 25.9613 202.741 26.5947C202.545 27.2236 202.254 27.766 201.866 28.2217C201.483 28.6729 201.007 29.0215 200.438 29.2676C199.868 29.5137 199.207 29.6367 198.455 29.6367C197.68 29.6367 197.004 29.5137 196.425 29.2676C195.851 29.0215 195.372 28.6706 194.989 28.2148C194.611 27.7591 194.326 27.2145 194.135 26.5811C193.948 25.9476 193.854 25.2458 193.854 24.4756C193.854 23.4548 194.023 22.5592 194.36 21.7891C194.698 21.0189 195.208 20.4196 195.892 19.9912C196.58 19.5628 197.441 19.3486 198.476 19.3486C199.465 19.3486 200.296 19.5605 200.971 19.9844C201.65 20.4082 202.162 21.0052 202.509 21.7754C202.86 22.541 203.035 23.4456 203.035 24.4893ZM195.078 24.4893C195.078 25.3369 195.199 26.0706 195.44 26.6904C195.682 27.3102 196.051 27.7887 196.548 28.126C197.049 28.4632 197.685 28.6318 198.455 28.6318C199.23 28.6318 199.863 28.4632 200.355 28.126C200.852 27.7887 201.219 27.3102 201.456 26.6904C201.693 26.0706 201.812 25.3369 201.812 24.4893C201.812 23.1995 201.54 22.1924 200.998 21.4678C200.46 20.7386 199.619 20.374 198.476 20.374C197.701 20.374 197.063 20.5404 196.562 20.873C196.06 21.2057 195.687 21.6797 195.44 22.2949C195.199 22.9056 195.078 23.637 195.078 24.4893ZM208.641 21.8711C209.529 21.8711 210.201 22.0898 210.657 22.5273C211.113 22.9603 211.341 23.6576 211.341 24.6191V29.5H210.22V24.6943C210.22 24.07 210.076 23.6029 209.789 23.293C209.507 22.9831 209.071 22.8281 208.483 22.8281C207.654 22.8281 207.071 23.0628 206.733 23.5322C206.396 24.0016 206.228 24.6829 206.228 25.5762V29.5H205.093V22.0078H206.009L206.18 23.0879H206.241C206.401 22.8236 206.604 22.6025 206.85 22.4248C207.096 22.2425 207.371 22.1058 207.677 22.0146C207.982 21.9189 208.303 21.8711 208.641 21.8711ZM214.82 29.5H213.679V18.8633H214.82V29.5ZM218.354 22.0078V29.5H217.22V22.0078H218.354ZM217.801 19.2051C217.988 19.2051 218.147 19.2666 218.279 19.3896C218.416 19.5081 218.484 19.695 218.484 19.9502C218.484 20.2008 218.416 20.3877 218.279 20.5107C218.147 20.6338 217.988 20.6953 217.801 20.6953C217.605 20.6953 217.441 20.6338 217.309 20.5107C217.181 20.3877 217.117 20.2008 217.117 19.9502C217.117 19.695 217.181 19.5081 217.309 19.3896C217.441 19.2666 217.605 19.2051 217.801 19.2051ZM224.309 21.8711C225.197 21.8711 225.869 22.0898 226.325 22.5273C226.781 22.9603 227.009 23.6576 227.009 24.6191V29.5H225.888V24.6943C225.888 24.07 225.744 23.6029 225.457 23.293C225.174 22.9831 224.739 22.8281 224.151 22.8281C223.322 22.8281 222.739 23.0628 222.401 23.5322C222.064 24.0016 221.896 24.6829 221.896 25.5762V29.5H220.761V22.0078H221.677L221.848 23.0879H221.909C222.069 22.8236 222.271 22.6025 222.518 22.4248C222.764 22.2425 223.039 22.1058 223.345 22.0146C223.65 21.9189 223.971 21.8711 224.309 21.8711ZM232.231 21.8711C232.869 21.8711 233.416 22.0124 233.872 22.2949C234.328 22.5775 234.676 22.974 234.918 23.4844C235.16 23.9902 235.28 24.5827 235.28 25.2617V25.9658H230.105C230.119 26.8454 230.338 27.5153 230.762 27.9756C231.186 28.4359 231.783 28.666 232.553 28.666C233.027 28.666 233.446 28.6227 233.811 28.5361C234.175 28.4495 234.553 28.3219 234.945 28.1533V29.1514C234.567 29.32 234.191 29.443 233.817 29.5205C233.448 29.598 233.011 29.6367 232.505 29.6367C231.785 29.6367 231.156 29.4909 230.618 29.1992C230.085 28.903 229.67 28.4701 229.374 27.9004C229.078 27.3307 228.93 26.6335 228.93 25.8086C228.93 25.002 229.064 24.3047 229.333 23.7168C229.606 23.1243 229.989 22.6686 230.481 22.3496C230.978 22.0306 231.562 21.8711 232.231 21.8711ZM232.218 22.8008C231.612 22.8008 231.129 22.999 230.769 23.3955C230.409 23.792 230.194 24.3457 230.126 25.0566H234.091C234.086 24.61 234.016 24.2181 233.879 23.8809C233.747 23.5391 233.544 23.2747 233.271 23.0879C232.997 22.8965 232.646 22.8008 232.218 22.8008Z" fill="#C8CDD0"/>
<defs>
<clipPath id="clip0_2126_1193">
<rect width="16" height="16" fill="white" transform="translate(22 16)"/>
</clipPath>
</defs>
</svg>
