<svg width="272" height="48" viewBox="0 0 272 48" fill="none" xmlns="http://www.w3.org/2000/svg">
<rect x="0.5" y="0.5" width="271" height="47" rx="7.5" fill="#1C1F21"/>
<rect x="0.5" y="0.5" width="271" height="47" rx="7.5" stroke="#363B40"/>
<rect x="138" y="4" width="130" height="40" rx="5" fill="#2D3136"/>
<path fill-rule="evenodd" clip-rule="evenodd" d="M28.8333 17.8335C28.6122 17.8335 28.4003 17.9213 28.244 18.0776C28.0877 18.2339 27.9999 18.4458 27.9999 18.6668V30.1668H34.9999V18.6668C34.9999 18.4458 34.9121 18.2339 34.7558 18.0776C34.5996 17.9213 34.3876 17.8335 34.1666 17.8335H28.8333ZM35.9999 21.5002V18.6668C35.9999 18.1806 35.8068 17.7143 35.4629 17.3705C35.1191 17.0267 34.6528 16.8335 34.1666 16.8335H28.8333C28.347 16.8335 27.8807 17.0267 27.5369 17.3705C27.1931 17.7143 26.9999 18.1806 26.9999 18.6668V23.5002H26.1666C25.6804 23.5002 25.214 23.6933 24.8702 24.0371C24.5264 24.3809 24.3333 24.8473 24.3333 25.3335V29.3335C24.3333 29.8197 24.5264 30.286 24.8702 30.6299C25.214 30.9737 25.6804 31.1668 26.1666 31.1668H36.8333C37.3195 31.1668 37.7858 30.9737 38.1296 30.6299C38.4734 30.286 38.6666 29.8197 38.6666 29.3335V23.3335C38.6666 22.8473 38.4734 22.3809 38.1296 22.0371C37.7858 21.6933 37.3195 21.5002 36.8333 21.5002H35.9999ZM35.9999 22.5002V30.1668H36.8333C37.0543 30.1668 37.2662 30.079 37.4225 29.9228C37.5788 29.7665 37.6666 29.5545 37.6666 29.3335V23.3335C37.6666 23.1125 37.5788 22.9005 37.4225 22.7442C37.2662 22.588 37.0543 22.5002 36.8333 22.5002H35.9999ZM26.9999 24.5002H26.1666C25.9456 24.5002 25.7336 24.588 25.5773 24.7442C25.421 24.9005 25.3333 25.1125 25.3333 25.3335V29.3335C25.3333 29.5545 25.421 29.7665 25.5773 29.9228C25.7336 30.079 25.9456 30.1668 26.1666 30.1668H26.9999V24.5002ZM29.6666 20.0002C29.6666 19.724 29.8904 19.5002 30.1666 19.5002H32.8333C33.1094 19.5002 33.3333 19.724 33.3333 20.0002C33.3333 20.2763 33.1094 20.5002 32.8333 20.5002H30.1666C29.8904 20.5002 29.6666 20.2763 29.6666 20.0002ZM29.6666 22.6668C29.6666 22.3907 29.8904 22.1668 30.1666 22.1668H32.8333C33.1094 22.1668 33.3333 22.3907 33.3333 22.6668C33.3333 22.943 33.1094 23.1668 32.8333 23.1668H30.1666C29.8904 23.1668 29.6666 22.943 29.6666 22.6668ZM29.6666 25.3335C29.6666 25.0574 29.8904 24.8335 30.1666 24.8335H32.8333C33.1094 24.8335 33.3333 25.0574 33.3333 25.3335C33.3333 25.6096 33.1094 25.8335 32.8333 25.8335H30.1666C29.8904 25.8335 29.6666 25.6096 29.6666 25.3335ZM29.6666 28.0002C29.6666 27.724 29.8904 27.5002 30.1666 27.5002H32.8333C33.1094 27.5002 33.3333 27.724 33.3333 28.0002C33.3333 28.2763 33.1094 28.5002 32.8333 28.5002H30.1666C29.8904 28.5002 29.6666 28.2763 29.6666 28.0002Z" fill="#869198"/>
<path d="M51.4785 19.5059C52.7682 19.5059 53.7093 19.7588 54.3018 20.2646C54.8988 20.766 55.1973 21.486 55.1973 22.4248C55.1973 22.8486 55.1266 23.252 54.9854 23.6348C54.8486 24.013 54.6253 24.348 54.3154 24.6396C54.0055 24.9268 53.5977 25.1546 53.0918 25.3232C52.5905 25.4873 51.9753 25.5693 51.2461 25.5693H50.0293V29.5H48.8672V19.5059H51.4785ZM51.3691 20.4971H50.0293V24.5713H51.1162C51.7542 24.5713 52.2852 24.5029 52.709 24.3662C53.1374 24.2295 53.4587 24.0085 53.6729 23.7031C53.887 23.3932 53.9941 22.9831 53.9941 22.4727C53.9941 21.8073 53.7822 21.3128 53.3584 20.9893C52.9346 20.6611 52.2715 20.4971 51.3691 20.4971ZM60.5225 21.8711C60.6729 21.8711 60.8301 21.8802 60.9941 21.8984C61.1582 21.9121 61.304 21.9326 61.4316 21.96L61.2881 23.0127C61.165 22.9808 61.0283 22.9557 60.8779 22.9375C60.7275 22.9193 60.5863 22.9102 60.4541 22.9102C60.1533 22.9102 59.8685 22.9717 59.5996 23.0947C59.3353 23.2132 59.1029 23.3864 58.9023 23.6143C58.7018 23.8376 58.5446 24.1087 58.4307 24.4277C58.3167 24.7422 58.2598 25.0931 58.2598 25.4805V29.5H57.1182V22.0078H58.0615L58.1846 23.3887H58.2324C58.3874 23.1107 58.5742 22.8577 58.793 22.6299C59.0117 22.3975 59.2646 22.2129 59.5518 22.0762C59.8434 21.9395 60.167 21.8711 60.5225 21.8711ZM65.7314 21.8711C66.3695 21.8711 66.9163 22.0124 67.3721 22.2949C67.8278 22.5775 68.1764 22.974 68.418 23.4844C68.6595 23.9902 68.7803 24.5827 68.7803 25.2617V25.9658H63.6055C63.6191 26.8454 63.8379 27.5153 64.2617 27.9756C64.6855 28.4359 65.2826 28.666 66.0527 28.666C66.5267 28.666 66.946 28.6227 67.3105 28.5361C67.6751 28.4495 68.0534 28.3219 68.4453 28.1533V29.1514C68.0671 29.32 67.6911 29.443 67.3174 29.5205C66.9482 29.598 66.5107 29.6367 66.0049 29.6367C65.2848 29.6367 64.6559 29.4909 64.1182 29.1992C63.585 28.903 63.1702 28.4701 62.874 27.9004C62.5778 27.3307 62.4297 26.6335 62.4297 25.8086C62.4297 25.002 62.5641 24.3047 62.833 23.7168C63.1064 23.1243 63.4893 22.6686 63.9814 22.3496C64.4782 22.0306 65.0615 21.8711 65.7314 21.8711ZM65.7178 22.8008C65.1117 22.8008 64.6286 22.999 64.2686 23.3955C63.9085 23.792 63.6943 24.3457 63.626 25.0566H67.5908C67.5863 24.61 67.5156 24.2181 67.3789 23.8809C67.2467 23.5391 67.0439 23.2747 66.7705 23.0879C66.4971 22.8965 66.1462 22.8008 65.7178 22.8008ZM75.5547 27.4492C75.5547 27.9277 75.4339 28.3311 75.1924 28.6592C74.9554 28.9827 74.6136 29.2266 74.167 29.3906C73.7249 29.5547 73.1963 29.6367 72.5811 29.6367C72.057 29.6367 71.6035 29.5957 71.2207 29.5137C70.8379 29.4316 70.5029 29.3154 70.2158 29.165V28.1191C70.5212 28.2695 70.8857 28.4062 71.3096 28.5293C71.7334 28.6523 72.1663 28.7139 72.6084 28.7139C73.2555 28.7139 73.7249 28.609 74.0166 28.3994C74.3083 28.1898 74.4541 27.9049 74.4541 27.5449C74.4541 27.3398 74.3949 27.1598 74.2764 27.0049C74.1624 26.8454 73.9688 26.6927 73.6953 26.5469C73.4219 26.3965 73.0436 26.2324 72.5605 26.0547C72.082 25.8724 71.6673 25.6924 71.3164 25.5146C70.9701 25.3324 70.7012 25.1113 70.5098 24.8516C70.3229 24.5918 70.2295 24.2546 70.2295 23.8398C70.2295 23.2064 70.4847 22.721 70.9951 22.3838C71.5101 22.042 72.1846 21.8711 73.0186 21.8711C73.4697 21.8711 73.8913 21.9167 74.2832 22.0078C74.6797 22.0944 75.0488 22.2129 75.3906 22.3633L75.0078 23.2725C74.6979 23.1403 74.3675 23.0286 74.0166 22.9375C73.6657 22.8464 73.3079 22.8008 72.9434 22.8008C72.4193 22.8008 72.016 22.8874 71.7334 23.0605C71.4554 23.2337 71.3164 23.4707 71.3164 23.7715C71.3164 24.0039 71.3802 24.1953 71.5078 24.3457C71.64 24.4961 71.8496 24.6374 72.1367 24.7695C72.4238 24.9017 72.8021 25.0566 73.2715 25.2344C73.7409 25.4076 74.1465 25.5876 74.4883 25.7744C74.8301 25.9567 75.0921 26.18 75.2744 26.4443C75.4613 26.7041 75.5547 27.0391 75.5547 27.4492ZM80.2646 21.8711C80.9027 21.8711 81.4495 22.0124 81.9053 22.2949C82.361 22.5775 82.7096 22.974 82.9512 23.4844C83.1927 23.9902 83.3135 24.5827 83.3135 25.2617V25.9658H78.1387C78.1523 26.8454 78.3711 27.5153 78.7949 27.9756C79.2188 28.4359 79.8158 28.666 80.5859 28.666C81.0599 28.666 81.4792 28.6227 81.8438 28.5361C82.2083 28.4495 82.5866 28.3219 82.9785 28.1533V29.1514C82.6003 29.32 82.2243 29.443 81.8506 29.5205C81.4814 29.598 81.0439 29.6367 80.5381 29.6367C79.818 29.6367 79.1891 29.4909 78.6514 29.1992C78.1182 28.903 77.7035 28.4701 77.4072 27.9004C77.111 27.3307 76.9629 26.6335 76.9629 25.8086C76.9629 25.002 77.0973 24.3047 77.3662 23.7168C77.6396 23.1243 78.0225 22.6686 78.5146 22.3496C79.0114 22.0306 79.5947 21.8711 80.2646 21.8711ZM80.251 22.8008C79.6449 22.8008 79.1618 22.999 78.8018 23.3955C78.4417 23.792 78.2275 24.3457 78.1592 25.0566H82.124C82.1195 24.61 82.0488 24.2181 81.9121 23.8809C81.7799 23.5391 81.5771 23.2747 81.3037 23.0879C81.0303 22.8965 80.6794 22.8008 80.251 22.8008ZM88.7891 21.8711C89.6777 21.8711 90.3499 22.0898 90.8057 22.5273C91.2614 22.9603 91.4893 23.6576 91.4893 24.6191V29.5H90.3682V24.6943C90.3682 24.07 90.2246 23.6029 89.9375 23.293C89.6549 22.9831 89.2197 22.8281 88.6318 22.8281C87.8024 22.8281 87.2191 23.0628 86.8818 23.5322C86.5446 24.0016 86.376 24.6829 86.376 25.5762V29.5H85.2412V22.0078H86.1572L86.3281 23.0879H86.3896C86.5492 22.8236 86.752 22.6025 86.998 22.4248C87.2441 22.2425 87.5199 22.1058 87.8252 22.0146C88.1305 21.9189 88.4518 21.8711 88.7891 21.8711ZM96.8281 29.6367C96.1536 29.6367 95.5589 29.4977 95.0439 29.2197C94.529 28.9417 94.1279 28.5179 93.8408 27.9482C93.5537 27.3786 93.4102 26.6608 93.4102 25.7949C93.4102 24.888 93.5605 24.1475 93.8613 23.5732C94.1667 22.9945 94.5859 22.5661 95.1191 22.2881C95.6523 22.0101 96.2585 21.8711 96.9375 21.8711C97.3112 21.8711 97.6712 21.9098 98.0176 21.9873C98.3685 22.0602 98.6556 22.1536 98.8789 22.2676L98.5371 23.2178C98.3092 23.1266 98.0449 23.0446 97.7441 22.9717C97.4479 22.8988 97.1699 22.8623 96.9102 22.8623C96.3906 22.8623 95.9577 22.974 95.6113 23.1973C95.2695 23.4206 95.012 23.7487 94.8389 24.1816C94.6702 24.6146 94.5859 25.1478 94.5859 25.7812C94.5859 26.3874 94.668 26.9046 94.832 27.333C95.0007 27.7614 95.249 28.0895 95.5771 28.3174C95.9098 28.5407 96.3245 28.6523 96.8213 28.6523C97.2178 28.6523 97.5755 28.6113 97.8945 28.5293C98.2135 28.4427 98.5029 28.3424 98.7627 28.2285V29.2402C98.512 29.3678 98.2318 29.4658 97.9219 29.5342C97.6165 29.6025 97.252 29.6367 96.8281 29.6367ZM101.675 22.0078V29.5H100.54V22.0078H101.675ZM101.121 19.2051C101.308 19.2051 101.467 19.2666 101.6 19.3896C101.736 19.5081 101.805 19.695 101.805 19.9502C101.805 20.2008 101.736 20.3877 101.6 20.5107C101.467 20.6338 101.308 20.6953 101.121 20.6953C100.925 20.6953 100.761 20.6338 100.629 20.5107C100.501 20.3877 100.438 20.2008 100.438 19.9502C100.438 19.695 100.501 19.5081 100.629 19.3896C100.761 19.2666 100.925 19.2051 101.121 19.2051ZM106.884 21.8848C107.777 21.8848 108.44 22.0853 108.873 22.4863C109.306 22.8874 109.522 23.5277 109.522 24.4072V29.5H108.695L108.477 28.3926H108.422C108.212 28.666 107.993 28.8962 107.766 29.083C107.538 29.2653 107.273 29.4043 106.973 29.5C106.676 29.5911 106.312 29.6367 105.879 29.6367C105.423 29.6367 105.018 29.557 104.662 29.3975C104.311 29.238 104.033 28.9964 103.828 28.6729C103.628 28.3493 103.527 27.9391 103.527 27.4424C103.527 26.695 103.824 26.1208 104.416 25.7197C105.008 25.3187 105.911 25.0999 107.123 25.0635L108.415 25.0088V24.5508C108.415 23.9036 108.276 23.4502 107.998 23.1904C107.72 22.9307 107.328 22.8008 106.822 22.8008C106.43 22.8008 106.057 22.8577 105.701 22.9717C105.346 23.0856 105.008 23.2201 104.689 23.375L104.341 22.5137C104.678 22.3405 105.065 22.1924 105.503 22.0693C105.94 21.9463 106.401 21.8848 106.884 21.8848ZM108.401 25.8086L107.26 25.8564C106.326 25.8929 105.667 26.0456 105.284 26.3145C104.901 26.5833 104.71 26.9639 104.71 27.4561C104.71 27.8844 104.84 28.2012 105.1 28.4062C105.359 28.6113 105.703 28.7139 106.132 28.7139C106.797 28.7139 107.342 28.5293 107.766 28.1602C108.189 27.791 108.401 27.2373 108.401 26.499V25.8086ZM113.002 29.5H111.86V18.8633H113.002V29.5Z" fill="#C8CDD0"/>
<path fill-rule="evenodd" clip-rule="evenodd" d="M171.167 20.5C170.706 20.5 170.333 20.8731 170.333 21.3333V26.6667C170.333 27.1269 170.706 27.5 171.167 27.5H177.833C178.293 27.5 178.667 27.1269 178.667 26.6667V24.6735C178.667 24.6686 178.667 24.6638 178.667 24.6589V23.0095C178.666 23.0035 178.666 22.9975 178.667 22.9914V21.3333C178.667 20.8731 178.293 20.5 177.833 20.5H171.167ZM179.667 22.1294V21.3333C179.667 20.3208 178.846 19.5 177.833 19.5H171.167C170.154 19.5 169.333 20.3208 169.333 21.3333V26.6667C169.333 27.6792 170.154 28.5 171.167 28.5H177.833C178.846 28.5 179.667 27.6792 179.667 26.6667V25.6009L182.372 27.4043C182.497 27.4878 182.643 27.5357 182.793 27.5429C182.944 27.5501 183.094 27.5163 183.227 27.4452C183.359 27.374 183.471 27.2682 183.548 27.1389C183.626 27.0096 183.667 26.8617 183.667 26.7109V21.2468C183.667 21.2468 183.667 21.2469 183.667 21.2468C183.667 21.1002 183.628 20.9561 183.555 20.8292C183.481 20.7023 183.375 20.597 183.248 20.524C183.121 20.4509 182.977 20.4127 182.83 20.4132C182.684 20.4137 182.54 20.4529 182.413 20.5268L179.667 22.1294ZM179.667 23.2872V24.3991L182.667 26.3991V21.5368L179.667 23.2872Z" fill="#59B2FF"/>
<path d="M202.686 24.4893C202.686 25.2594 202.588 25.9613 202.392 26.5947C202.2 27.2236 201.911 27.766 201.523 28.2217C201.136 28.6729 200.651 29.0215 200.067 29.2676C199.484 29.5137 198.8 29.6367 198.017 29.6367C197.219 29.6367 196.526 29.5137 195.938 29.2676C195.355 29.0215 194.87 28.6706 194.482 28.2148C194.1 27.7591 193.812 27.2145 193.621 26.5811C193.43 25.9476 193.334 25.2458 193.334 24.4756C193.334 23.4456 193.503 22.5479 193.84 21.7822C194.182 21.012 194.699 20.415 195.392 19.9912C196.089 19.5628 196.968 19.3486 198.03 19.3486C199.069 19.3486 199.933 19.5605 200.621 19.9844C201.309 20.4082 201.824 21.0052 202.166 21.7754C202.512 22.541 202.686 23.4456 202.686 24.4893ZM195.057 24.4893C195.057 25.2594 195.161 25.9271 195.371 26.4922C195.581 27.0527 195.902 27.4857 196.335 27.791C196.772 28.0918 197.333 28.2422 198.017 28.2422C198.705 28.2422 199.265 28.0918 199.698 27.791C200.131 27.4857 200.45 27.0527 200.655 26.4922C200.86 25.9271 200.963 25.2594 200.963 24.4893C200.963 23.318 200.728 22.402 200.259 21.7412C199.794 21.0758 199.051 20.7432 198.03 20.7432C197.347 20.7432 196.784 20.8936 196.342 21.1943C195.904 21.4951 195.581 21.9258 195.371 22.4863C195.161 23.0423 195.057 23.71 195.057 24.4893ZM208.612 21.7891C209.465 21.7891 210.128 22.0101 210.602 22.4521C211.08 22.8896 211.319 23.5938 211.319 24.5645V29.5H209.713V24.8652C209.713 24.2773 209.592 23.8376 209.351 23.5459C209.109 23.2497 208.735 23.1016 208.229 23.1016C207.496 23.1016 206.985 23.3271 206.698 23.7783C206.416 24.2295 206.274 24.8835 206.274 25.7402V29.5H204.668V21.9326H205.919L206.145 22.958H206.233C206.397 22.6937 206.6 22.4772 206.842 22.3086C207.088 22.1354 207.361 22.0055 207.662 21.9189C207.967 21.8324 208.284 21.7891 208.612 21.7891ZM215.182 29.5H213.568V18.8633H215.182V29.5ZM219.085 21.9326V29.5H217.479V21.9326H219.085ZM218.292 19.0342C218.538 19.0342 218.75 19.1003 218.928 19.2324C219.11 19.3646 219.201 19.5924 219.201 19.916C219.201 20.235 219.11 20.4629 218.928 20.5996C218.75 20.7318 218.538 20.7979 218.292 20.7979C218.037 20.7979 217.82 20.7318 217.643 20.5996C217.469 20.4629 217.383 20.235 217.383 19.916C217.383 19.5924 217.469 19.3646 217.643 19.2324C217.82 19.1003 218.037 19.0342 218.292 19.0342ZM225.333 21.7891C226.185 21.7891 226.848 22.0101 227.322 22.4521C227.801 22.8896 228.04 23.5938 228.04 24.5645V29.5H226.434V24.8652C226.434 24.2773 226.313 23.8376 226.071 23.5459C225.83 23.2497 225.456 23.1016 224.95 23.1016C224.216 23.1016 223.706 23.3271 223.419 23.7783C223.136 24.2295 222.995 24.8835 222.995 25.7402V29.5H221.389V21.9326H222.64L222.865 22.958H222.954C223.118 22.6937 223.321 22.4772 223.562 22.3086C223.809 22.1354 224.082 22.0055 224.383 21.9189C224.688 21.8324 225.005 21.7891 225.333 21.7891ZM233.304 21.7891C233.978 21.7891 234.557 21.9281 235.04 22.2061C235.523 22.484 235.895 22.8783 236.154 23.3887C236.414 23.8991 236.544 24.5098 236.544 25.2207V26.082H231.492C231.51 26.8158 231.706 27.3809 232.08 27.7773C232.458 28.1738 232.987 28.3721 233.666 28.3721C234.149 28.3721 234.582 28.3265 234.965 28.2354C235.352 28.1396 235.751 28.0007 236.161 27.8184V29.124C235.783 29.3018 235.398 29.4316 235.006 29.5137C234.614 29.5957 234.145 29.6367 233.598 29.6367C232.855 29.6367 232.201 29.4932 231.636 29.2061C231.075 28.9144 230.635 28.4814 230.316 27.9072C230.002 27.333 229.845 26.6198 229.845 25.7676C229.845 24.9199 229.988 24.1999 230.275 23.6074C230.562 23.015 230.966 22.5638 231.485 22.2539C232.005 21.944 232.611 21.7891 233.304 21.7891ZM233.304 22.999C232.798 22.999 232.388 23.1631 232.073 23.4912C231.763 23.8193 231.581 24.3001 231.526 24.9336H234.972C234.967 24.5553 234.903 24.2204 234.78 23.9287C234.662 23.637 234.479 23.4092 234.233 23.2451C233.992 23.0811 233.682 22.999 233.304 22.999Z" fill="#F9F9F9"/>
</svg>
