<svg width="17" height="16" viewBox="0 0 17 16" fill="none" xmlns="http://www.w3.org/2000/svg">
<path fill-rule="evenodd" clip-rule="evenodd" d="M8.50004 1.83331C5.09428 1.83331 2.33337 4.59422 2.33337 7.99998C2.33337 11.4057 5.09428 14.1666 8.50004 14.1666C11.9058 14.1666 14.6667 11.4057 14.6667 7.99998C14.6667 4.59422 11.9058 1.83331 8.50004 1.83331ZM1.33337 7.99998C1.33337 4.04194 4.542 0.833313 8.50004 0.833313C12.4581 0.833313 15.6667 4.04194 15.6667 7.99998C15.6667 11.958 12.4581 15.1666 8.50004 15.1666C4.542 15.1666 1.33337 11.958 1.33337 7.99998ZM8.50004 4.83331C8.77618 4.83331 9.00004 5.05717 9.00004 5.33331V7.99998C9.00004 8.27612 8.77618 8.49998 8.50004 8.49998C8.2239 8.49998 8.00004 8.27612 8.00004 7.99998V5.33331C8.00004 5.05717 8.2239 4.83331 8.50004 4.83331ZM8.00004 10.6666C8.00004 10.3905 8.2239 10.1666 8.50004 10.1666H8.50671C8.78285 10.1666 9.00671 10.3905 9.00671 10.6666C9.00671 10.9428 8.78285 11.1666 8.50671 11.1666H8.50004C8.2239 11.1666 8.00004 10.9428 8.00004 10.6666Z" fill="#FF5959"/>
</svg>
